<svg xmlns="http://www.w3.org/2000/svg" xmlns:xlink="http://www.w3.org/1999/xlink" viewBox="0 0 9.37 8.68"><defs><style>.cls-1{fill:#fff;}</style><symbol id="star" data-name="star" viewBox="0 0 9.35 9.35"><path class="cls-1" d="M5.61,5.23c.65-.44,1.76-.49,3.74-.56-2-.06-3.09-.11-3.74-.55a9.66,9.66,0,0,1,1.66-2,9.21,9.21,0,0,1-2,1.65C4.79,3.09,4.74,2,4.67,0c-.06,2-.11,3.09-.55,3.73a9.21,9.21,0,0,1-2-1.65,9.21,9.21,0,0,1,1.65,2C3.09,4.56,2,4.61,0,4.67c2,.07,3.09.12,3.73.56a9.21,9.21,0,0,1-1.65,2,9.66,9.66,0,0,1,2-1.66c.44.65.49,1.76.55,3.74.07-2,.12-3.09.56-3.74a9.66,9.66,0,0,1,2,1.66A9.66,9.66,0,0,1,5.61,5.23Z"/></symbol></defs><title>Asset 1</title><g id="Layer_2" data-name="Layer 2"><g id="Layer_1-2" data-name="Layer 1"><use width="9.35" height="9.35" transform="scale(1 0.93)" xlink:href="#star"/></g></g></svg>